PathFileType	4	(X/Y/Z)	C:\Users\86182\Documents\cortex\Trimmed_M1_H10.trc
DataRate	CameraRate	NumFrames	NumMarkers	Units	OrigDataRate	OrigDataStartFrame	OrigNumFrames
100.00	100.00	       87	2	mm	100.00	1	       951
Frame#	Time	gripper			box			
		X1	Y1	Z1	X2	Y2	Z2	

1	0.000	225.00725	204.36125	183.94579	233.92432	202.98198	43.79008	
2	0.010	225.00334	204.36198	183.94827	233.91864	202.98001	43.79604	
3	0.020	225.00125	204.36238	183.94962	233.91275	202.97783	43.80244	
4	0.030	225.00119	204.36240	183.94965	233.90697	202.97572	43.80865	
5	0.040	225.00308	204.36203	183.94844	233.90227	202.97417	43.81347	
6	0.050	225.00662	204.36137	183.94620	233.89963	202.97351	43.81580	
7	0.060	225.01122	204.36050	183.94327	233.89932	202.97385	43.81539	
8	0.070	225.01620	204.35956	183.94008	233.90102	202.97490	43.81284	
9	0.080	225.02101	204.35864	183.93701	233.90457	202.97617	43.80905	
10	0.090	225.02501	204.35789	183.93448	233.91014	202.97714	43.80482	
11	0.100	225.02756	204.35741	183.93286	233.91760	202.97757	43.80062	
12	0.110	225.02863	204.35719	183.93217	233.92596	202.97760	43.79665	
13	0.120	225.02913	204.35709	183.93185	233.93391	202.97757	43.79300	
14	0.130	225.02998	204.35692	183.93132	233.94025	202.97775	43.78973	
15	0.140	225.03114	204.35670	183.93057	233.94359	202.97838	43.78713	
16	0.150	225.03175	204.35661	183.93016	233.94308	202.97949	43.78550	
17	0.160	225.03111	204.35678	183.93054	233.93906	202.98102	43.78482	
18	0.170	225.02950	204.35715	183.93152	233.93259	202.98270	43.78502	
19	0.180	225.02791	204.35756	183.93246	233.92496	202.98407	43.78628	
20	0.190	225.02699	204.35786	183.93294	233.91754	202.98474	43.78862	
21	0.200	225.02672	204.35808	183.93300	233.91148	202.98465	43.79160	
22	0.210	225.02678	204.35820	183.93286	233.90762	202.98413	43.79429	
23	0.220	225.02679	204.35829	183.93279	233.90623	202.98357	43.79587	
24	0.230	225.02661	204.35832	183.93291	233.90668	202.98331	43.79610	
25	0.240	225.02638	204.35832	183.93309	233.90799	202.98337	43.79539	
26	0.250	225.02606	204.35831	183.93335	233.90981	202.98346	43.79440	
27	0.260	225.02527	204.35838	183.93391	233.91229	202.98308	43.79387	
28	0.270	225.02386	204.35857	183.93488	233.91557	202.98199	43.79415	
29	0.280	225.02197	204.35883	183.93616	233.91919	202.98055	43.79490	
30	0.290	225.01958	204.35918	183.93776	233.92203	202.97932	43.79562	
31	0.300	225.01649	204.35965	183.93979	233.92278	202.97878	43.79619	
32	0.310	225.01263	204.36031	183.94231	233.92110	202.97871	43.79707	
33	0.320	225.00841	204.36104	183.94504	233.91798	202.97865	43.79863	
34	0.330	225.00467	204.36171	183.94745	233.91490	202.97829	43.80067	
35	0.340	225.00220	204.36215	183.94904	233.91293	202.97777	43.80245	
36	0.350	225.00139	204.36230	183.94955	233.91223	202.97743	43.80336	
37	0.360	225.00212	204.36220	183.94907	233.91246	202.97748	43.80317	
38	0.370	225.00400	204.36189	183.94783	233.91338	202.97812	43.80169	
39	0.380	225.00652	204.36150	183.94617	233.91473	202.97940	43.79890	
40	0.390	225.00914	204.36110	183.94443	233.91615	202.98125	43.79513	
41	0.400	225.01120	204.36086	183.94301	233.91771	202.98325	43.79107	
42	0.410	225.01210	204.36082	183.94234	233.91936	202.98480	43.78770	
43	0.420	225.01180	204.36101	183.94244	233.92061	202.98564	43.78569	
44	0.430	225.01099	204.36121	183.94292	233.92171	202.98586	43.78482	
45	0.440	225.01073	204.36121	183.94312	233.92410	202.98564	43.78407	
46	0.450	225.01180	204.36089	183.94252	233.92896	202.98514	43.78264	
47	0.460	225.01428	204.36026	183.94104	233.93585	202.98444	43.78060	
48	0.470	225.01759	204.35950	183.93903	233.94319	202.98357	43.77861	
49	0.480	225.02124	204.35870	183.93678	233.94969	202.98247	43.77742	
50	0.490	225.02524	204.35786	183.93430	233.95470	202.98100	43.77753	
51	0.500	225.02943	204.35703	183.93167	233.95741	202.97922	43.77925	
52	0.510	225.03271	204.35640	183.92958	233.95647	202.97749	43.78259	
53	0.520	225.03368	204.35623	183.92897	233.95096	202.97643	43.78696	
54	0.530	225.03214	204.35657	183.92993	233.94122	202.97649	43.79139	
55	0.540	225.02933	204.35718	183.93166	233.92853	202.97780	43.79514	
56	0.550	225.02679	204.35777	183.93320	233.91466	202.97998	43.79794	
57	0.560	225.02539	204.35818	183.93399	233.90147	202.98254	43.79981	
58	0.570	225.02522	204.35835	183.93398	233.89038	202.98502	43.80085	
59	0.580	225.02576	204.35838	183.93355	233.88237	202.98715	43.80101	
60	0.590	225.02606	204.35837	183.93330	233.87808	202.98883	43.80021	
61	0.600	225.02562	204.35841	183.93362	233.87769	202.98997	43.79848	
62	0.610	225.02451	204.35849	183.93442	233.88133	202.99048	43.79593	
63	0.620	225.02299	204.35864	183.93549	233.88838	202.99025	43.79302	
64	0.630	225.02118	204.35884	183.93674	233.89677	202.98938	43.79057	
65	0.640	225.01926	204.35910	183.93805	233.90425	202.98816	43.78912	
66	0.650	225.01755	204.35934	183.93919	233.90939	202.98705	43.78858	
67	0.660	225.01630	204.35953	183.94003	233.91144	202.98659	43.78839	
68	0.670	225.01535	204.35966	183.94066	233.91055	202.98711	43.78793	
69	0.680	225.01433	204.35983	183.94133	233.90762	202.98849	43.78697	
70	0.690	225.01271	204.36012	183.94237	233.90303	202.99028	43.78611	
71	0.700	225.01018	204.36060	183.94400	233.89648	202.99194	43.78640	
72	0.710	225.00685	204.36122	183.94609	233.88803	202.99306	43.78847	
73	0.720	225.00354	204.36188	183.94818	233.87877	202.99339	43.79225	
74	0.730	225.00116	204.36240	183.94966	233.87057	202.99278	43.79707	
75	0.740	225.00027	204.36267	183.95013	233.86600	202.99129	43.80173	
76	0.750	225.00107	204.36272	183.94949	233.86771	202.98906	43.80466	
77	0.760	225.00336	204.36255	183.94785	233.87677	202.98634	43.80497	
78	0.770	225.00659	204.36227	183.94554	233.89136	202.98332	43.80323	
79	0.780	225.00993	204.36200	183.94315	233.90788	202.98013	43.80085	
80	0.790	225.01268	204.36179	183.94118	233.92300	202.97699	43.79906	
81	0.800	225.01480	204.36150	183.93974	233.93451	202.97415	43.79843	
82	0.810	225.01657	204.36104	183.93869	233.94165	202.97189	43.79887	
83	0.820	225.01794	204.36049	183.93803	233.94493	202.97054	43.79961	
84	0.830	225.01819	204.36008	183.93814	233.94528	202.97041	43.79966	
85	0.840	225.01665	204.36005	183.93936	233.94357	202.97160	43.79846	
86	0.850	225.01343	204.36038	183.94160	233.94075	202.97368	43.79633	
87	0.860	225.00943	204.36095	183.94429	233.93773	202.97586	43.79409	
